<svg version="1" xmlns="http://www.w3.org/2000/svg" width="200" height="200" viewBox="0 0 150.000000 150.000000"><path d="M62.5 8.7c-25.2 5.5-44.2 21.9-52.2 44.9C8 60.5 7.6 63.1 7.6 74c-.1 13.2.3 16.7 2.9 24 4.8 13.7 17.2 28.4 30.1 35.6 17.1 9.5 37.2 11.3 55.7 4.9 30.3-10.4 48.8-41.2 44.3-73.2-.7-4.9-.6-5.5 2.3-9.2 1.7-2.1 3.1-4.5 3.1-5.3 0-2.8-14.3-16.9-24.8-24.4C101.2 12.1 93 8.9 75.5 8.5c-6-.1-11.9 0-13 .2zm28 10.6l4 1.5-3 1.1c-8.7 3.3-14.1 7.9-18.1 15.9-2.5 4.9-2.9 6.8-2.8 13.7 0 6.2.6 9 2.4 12.5 2.1 4.2 8.3 12.7 10.3 14.1.9.6.3 5.8-1.3 12-1.4 5.2-8.1 15-12.6 18.6-7.5 5.9-13.9 8.7-22.6 9.8l-4.7.6-1-3.6c-2.4-8.7-10.3-18-18.7-21.6-3.7-1.7-4.5-2.6-5.5-6.2-1.6-6.1-1.4-19.3.5-26.6 5.3-20.6 22.3-37.5 42.8-42.7 6.8-1.7 24.8-1.2 30.3.9z"/></svg>