<?xml version="1.0" standalone="no"?>
<!DOCTYPE svg PUBLIC "-//W3C//DTD SVG 20010904//EN"
 "http://www.w3.org/TR/2001/REC-SVG-20010904/DTD/svg10.dtd">
<svg version="1.0" xmlns="http://www.w3.org/2000/svg"
 width="800.000000pt" height="800.000000pt" viewBox="0 0 800.000000 800.000000"
 preserveAspectRatio="xMidYMid meet">
<metadata>
Created by potrace 1.11, written by Peter Selinger 2001-2013
</metadata>
<g transform="translate(0.000000,800.000000) scale(0.100000,-0.100000)"
fill="#000000" stroke="none">
<path d="M3689 7596 c-2 -2 -40 -7 -84 -11 -108 -8 -156 -14 -245 -30 -14 -3
-38 -7 -55 -10 -16 -2 -70 -14 -120 -25 -49 -11 -101 -23 -114 -26 -14 -3 -28
-7 -33 -10 -5 -3 -21 -7 -36 -10 -15 -3 -63 -17 -107 -31 -44 -15 -84 -28 -90
-29 -5 -1 -41 -14 -80 -29 -38 -15 -74 -28 -80 -30 -46 -10 -397 -179 -490
-235 -27 -16 -57 -33 -65 -37 -8 -4 -26 -14 -40 -24 -97 -65 -211 -139 -215
-139 -3 0 -14 -8 -24 -17 -23 -21 -32 -28 -86 -68 -22 -17 -45 -34 -51 -40 -6
-5 -33 -28 -60 -50 -194 -161 -389 -365 -543 -570 -34 -44 -65 -85 -71 -92 -5
-7 -10 -15 -10 -19 0 -3 -12 -23 -27 -43 -32 -42 -31 -40 -117 -186 -54 -92
-155 -292 -187 -370 -4 -11 -17 -40 -27 -65 -21 -47 -110 -306 -117 -337 -2
-10 -13 -54 -25 -98 -11 -44 -22 -89 -25 -100 -2 -11 -7 -31 -10 -45 -9 -38
-33 -173 -40 -222 -3 -24 -8 -61 -12 -83 -29 -186 -42 -538 -29 -765 8 -139
17 -255 22 -285 3 -16 7 -50 9 -75 5 -67 24 -176 35 -205 5 -14 7 -25 4 -25
-2 0 2 -13 11 -30 8 -16 15 -31 14 -32 -3 -5 42 -140 62 -183 9 -22 27 -66 38
-97 11 -32 25 -66 31 -75 5 -10 27 -58 49 -108 57 -132 160 -330 234 -450 55
-90 151 -240 157 -245 3 -3 16 -22 30 -42 14 -21 28 -38 33 -38 4 0 7 -6 7
-13 0 -7 10 -23 22 -37 13 -14 36 -43 53 -65 16 -22 34 -45 40 -51 5 -6 23
-28 39 -49 63 -79 280 -305 373 -386 63 -55 245 -199 273 -216 17 -9 30 -21
30 -25 0 -4 4 -8 10 -8 5 0 31 -15 57 -34 60 -42 214 -131 318 -184 93 -47
271 -123 355 -152 19 -7 44 -16 55 -20 21 -8 142 -43 208 -60 98 -26 115 -30
152 -36 22 -4 45 -8 50 -9 22 -6 82 -16 105 -19 14 -2 43 -6 65 -10 85 -13
143 -18 216 -20 42 -2 82 -7 89 -11 9 -5 11 -4 6 3 -10 16 7 15 23 0 11 -10
12 -10 7 -1 -5 10 25 12 134 10 77 -1 140 0 140 3 0 8 104 6 116 -2 11 -7 130
-3 224 8 25 3 59 7 75 8 17 2 49 7 73 10 24 4 58 9 75 11 18 1 73 11 122 20
50 10 97 19 105 19 9 1 21 5 28 10 6 4 12 5 12 2 0 -2 57 11 128 30 70 19 137
36 149 39 41 10 288 97 338 120 28 13 79 36 115 51 87 38 194 94 310 163 52
31 100 58 105 61 13 6 178 122 185 130 3 3 31 25 64 49 32 24 66 51 76 60 10
9 35 31 56 50 149 129 340 333 443 474 25 34 48 64 52 67 12 10 158 238 204
319 57 102 185 361 178 361 -3 0 -1 6 4 12 5 7 20 40 33 73 12 33 28 74 35 90
13 29 75 220 79 240 1 6 5 15 8 21 4 6 9 21 12 35 2 13 14 60 25 104 12 44 24
94 27 110 8 43 12 60 14 60 1 0 3 9 4 20 2 11 9 48 15 83 7 34 14 79 17 100 2
20 6 47 8 58 3 12 7 48 11 80 4 33 8 70 11 84 11 69 18 248 17 435 0 242 -6
336 -34 535 -23 165 -23 164 8 201 15 18 35 42 43 53 8 10 23 27 33 38 9 10
17 21 17 26 0 4 13 21 28 39 15 17 36 44 47 59 28 39 132 177 143 190 27 31
31 51 14 66 -9 9 -39 42 -67 74 -94 108 -209 234 -300 329 -38 40 -86 90 -106
112 -91 97 -361 352 -493 466 -12 10 -32 28 -46 40 -25 22 -124 103 -148 122
-7 6 -19 16 -27 23 -12 10 -71 54 -240 180 -5 4 -37 25 -70 47 -33 22 -64 45
-70 51 -23 25 -347 244 -361 244 -3 0 -18 8 -32 19 -65 46 -428 230 -477 241
-2 1 -44 18 -92 39 -105 45 -433 151 -513 166 -31 6 -67 13 -100 21 -64 15
-301 55 -356 59 -34 3 -72 8 -85 11 -28 6 -504 15 -510 10z m376 -436 c12 5
26 6 29 3 3 -4 32 -8 64 -9 135 -6 275 -22 382 -44 30 -6 69 -13 85 -16 17 -3
48 -10 70 -16 22 -5 49 -12 60 -14 11 -1 38 -8 60 -14 64 -17 74 -20 93 -24 9
-2 62 -21 117 -41 108 -39 123 -43 144 -44 8 -1 12 -3 9 -6 -8 -8 -45 -15
-103 -20 -103 -9 -422 -143 -557 -234 -25 -17 -50 -31 -56 -31 -6 0 -12 -4
-14 -8 -1 -5 -19 -19 -39 -33 -20 -13 -53 -37 -74 -54 -50 -39 -265 -254 -265
-265 0 -5 -6 -15 -13 -22 -41 -41 -198 -318 -180 -318 3 0 1 -6 -4 -12 -15
-19 -66 -185 -79 -255 -2 -13 -6 -35 -9 -50 -19 -101 -25 -309 -12 -438 10
-106 18 -158 24 -175 3 -8 7 -22 9 -30 3 -15 15 -76 19 -95 3 -15 36 -127 43
-145 3 -8 6 -18 6 -22 1 -3 4 -10 9 -14 4 -4 7 -13 7 -20 0 -8 11 -37 24 -66
14 -29 28 -66 31 -81 4 -15 11 -27 16 -27 5 0 8 -3 7 -7 -3 -10 97 -208 123
-245 11 -14 19 -31 19 -37 0 -6 5 -11 10 -11 6 0 10 -4 10 -9 0 -21 216 -321
232 -321 4 0 8 -5 8 -10 0 -6 16 -26 35 -45 19 -19 32 -35 30 -35 -3 0 4 -9
15 -20 16 -16 19 -30 16 -68 -2 -26 -5 -47 -6 -47 -1 0 -3 -16 -5 -35 -4 -72
-81 -403 -105 -455 -8 -19 -21 -58 -26 -80 -4 -17 -85 -208 -102 -240 -9 -16
-17 -32 -17 -35 -1 -6 -34 -66 -52 -95 -7 -11 -18 -31 -25 -45 -7 -14 -16 -29
-21 -35 -4 -5 -35 -49 -68 -97 -33 -49 -64 -88 -70 -88 -5 0 -9 -5 -9 -10 0
-21 -202 -230 -275 -285 -22 -16 -45 -34 -51 -40 -35 -31 -171 -124 -229 -156
-107 -59 -210 -109 -221 -109 -8 0 -14 -5 -14 -12 0 -6 -3 -9 -6 -6 -5 5 -30
-4 -119 -42 -25 -11 -145 -49 -171 -54 -10 -3 -38 -11 -62 -20 -23 -8 -45 -15
-47 -15 -4 1 -77 -12 -95 -16 -3 -1 -18 -4 -35 -8 -16 -4 -50 -10 -75 -13 -25
-3 -54 -7 -65 -9 -48 -7 -124 -15 -178 -20 l-58 -5 -16 38 c-20 46 -27 66 -42
117 -13 41 -18 55 -45 117 -9 20 -16 38 -16 41 0 3 -16 41 -37 84 -20 43 -37
80 -38 83 -3 11 -50 105 -55 110 -3 3 -14 21 -24 40 -96 178 -290 409 -442
527 -82 64 -124 93 -132 93 -5 0 -15 7 -22 15 -7 8 -24 21 -39 28 -82 43 -197
101 -201 102 -6 2 -55 21 -100 40 -19 8 -58 22 -87 31 -30 9 -54 23 -57 33 -5
15 -16 96 -22 151 -1 14 -3 25 -4 25 -2 0 -9 52 -14 105 -2 25 -7 71 -10 103
-3 31 -9 83 -12 115 -23 223 -16 679 11 832 3 14 7 45 10 70 11 91 20 148 29
178 3 9 8 33 10 52 3 19 7 42 10 50 3 8 7 26 10 40 6 39 25 108 53 195 14 44
27 88 28 97 2 10 10 32 18 50 8 18 20 49 27 68 31 88 153 339 202 411 21 32
38 61 38 64 0 12 143 209 211 290 63 75 249 265 297 302 12 10 42 35 65 55 23
21 45 38 49 38 4 0 13 7 22 15 26 26 106 85 115 85 5 0 11 4 13 8 5 12 213
142 226 142 7 0 12 5 12 11 0 5 5 7 10 4 6 -3 13 1 16 9 3 9 14 16 24 16 11 0
21 4 24 9 6 8 116 64 241 121 127 59 390 156 500 185 43 12 44 12 53 15 4 2
12 4 17 5 6 2 13 4 18 5 10 3 14 4 82 20 33 8 62 14 65 15 9 2 95 18 115 21
11 2 36 6 55 9 19 3 55 7 80 10 25 2 45 5 45 6 0 3 60 7 194 13 73 3 136 7
138 10 2 2 18 0 34 -4 17 -5 40 -5 54 0z"/>
<path d="M4006 461 c-4 -5 3 -7 14 -4 23 6 26 13 6 13 -8 0 -17 -4 -20 -9z"/>
</g>
</svg>
